Monda-Bold-condensed.ufo
<glyph name="zero" format="1">
  <advance width="1118"/>
  <unicode hex="0030"/>
  <outline>
    <contour>
      <point x="560" y="223" type="curve" smooth="yes"/>
      <point x="383" y="223"/>
      <point x="360" y="365"/>
      <point x="360" y="437" type="curve" smooth="yes"/>
      <point x="360" y="1050" type="line" smooth="yes"/>
      <point x="360" y="1125"/>
      <point x="369" y="1264"/>
      <point x="560" y="1264" type="curve" smooth="yes"/>
      <point x="748" y="1264"/>
      <point x="761" y="1125"/>
      <point x="761" y="1050" type="curve" smooth="yes"/>
      <point x="761" y="437" type="line" smooth="yes"/>
      <point x="761" y="364"/>
      <point x="739" y="223"/>
    </contour>
    <contour>
      <point x="560" y="-29" type="curve" smooth="yes"/>
      <point x="921" y="-29"/>
      <point x="1049" y="188"/>
      <point x="1049" y="437" type="curve" smooth="yes"/>
      <point x="1049" y="1050" type="line" smooth="yes"/>
      <point x="1049" y="1307"/>
      <point x="931" y="1518"/>
      <point x="560" y="1518" type="curve" smooth="yes"/>
      <point x="188" y="1518"/>
      <point x="70" y="1308"/>
      <point x="70" y="1050" type="curve" smooth="yes"/>
      <point x="70" y="437" type="line" smooth="yes"/>
      <point x="70" y="185"/>
      <point x="196" y="-29"/>
    </contour>
  </outline>
</glyph>
<glyph name="two" format="1">
  <advance width="1191"/>
  <unicode hex="0032"/>
  <outline>
    <contour>
      <point x="50" y="0" type="line"/>
      <point x="1151" y="0" type="line"/>
      <point x="1151" y="286" type="line"/>
      <point x="480" y="286" type="line"/>
      <point x="767" y="499"/>
      <point x="1151" y="762"/>
      <point x="1151" y="1108" type="curve" smooth="yes"/>
      <point x="1151" y="1357"/>
      <point x="1011" y="1518"/>
      <point x="602" y="1518" type="curve" smooth="yes"/>
      <point x="157" y="1518"/>
      <point x="50" y="1321"/>
      <point x="50" y="1056" type="curve" smooth="yes"/>
      <point x="50" y="962" type="line"/>
      <point x="402" y="962" type="line"/>
      <point x="402" y="1044"/>
      <point x="382" y="1267"/>
      <point x="602" y="1267" type="curve" smooth="yes"/>
      <point x="744" y="1267"/>
      <point x="799" y="1173"/>
      <point x="799" y="1108" type="curve" smooth="yes"/>
      <point x="799" y="986"/>
      <point x="661" y="872"/>
      <point x="539" y="775" type="curve"/>
      <point x="50" y="256" type="line"/>
    </contour>
  </outline>
</glyph>
<glyph name="greater" format="1">
  <advance width="837"/>
  <unicode hex="003E"/>
  <outline>
    <contour>
      <point x="95" y="44" type="line"/>
      <point x="777" y="434" type="line"/>
      <point x="777" y="661" type="line"/>
      <point x="95" y="1053" type="line"/>
      <point x="95" y="810" type="line"/>
      <point x="585" y="549" type="line"/>
      <point x="95" y="285" type="line"/>
    </contour>
  </outline>
</glyph>
<glyph name="E" format="1">
  <advance width="1099"/>
  <unicode hex="0045"/>
  <outline>
    <contour>
      <point x="154" y="0" type="line"/>
      <point x="996" y="0" type="line"/>
      <point x="996" y="261" type="line"/>
      <point x="493" y="261" type="line"/>
      <point x="493" y="636" type="line"/>
      <point x="903" y="636" type="line"/>
      <point x="903" y="877" type="line"/>
      <point x="493" y="877" type="line"/>
      <point x="493" y="1228" type="line"/>
      <point x="996" y="1228" type="line"/>
      <point x="996" y="1490" type="line"/>
      <point x="154" y="1490" type="line"/>
    </contour>
  </outline>
</glyph>
<glyph name="O" format="1">
  <advance width="1443"/>
  <unicode hex="004F"/>
  <outline>
    <contour>
      <point x="804" y="-29" type="line" smooth="yes"/>
      <point x="1240" y="-29"/>
      <point x="1314" y="203"/>
      <point x="1314" y="490" type="curve" smooth="yes"/>
      <point x="1314" y="991" type="line" smooth="yes"/>
      <point x="1314" y="1286"/>
      <point x="1243" y="1518"/>
      <point x="804" y="1518" type="curve" smooth="yes"/>
      <point x="638" y="1518" type="line" smooth="yes"/>
      <point x="199" y="1518"/>
      <point x="129" y="1302"/>
      <point x="129" y="1007" type="curve" smooth="yes"/>
      <point x="129" y="473" type="line" smooth="yes"/>
      <point x="129" y="186"/>
      <point x="202" y="-29"/>
      <point x="638" y="-29" type="curve" smooth="yes"/>
    </contour>
    <contour>
      <point x="975" y="404" type="line" smooth="yes"/>
      <point x="975" y="286"/>
      <point x="943" y="237"/>
      <point x="733" y="237" type="curve" smooth="yes"/>
      <point x="526" y="237"/>
      <point x="468" y="285"/>
      <point x="468" y="404" type="curve" smooth="yes"/>
      <point x="468" y="1082" type="line" smooth="yes"/>
      <point x="468" y="1200"/>
      <point x="528" y="1252"/>
      <point x="733" y="1252" type="curve" smooth="yes"/>
      <point x="940" y="1252"/>
      <point x="975" y="1194"/>
      <point x="975" y="1082" type="curve" smooth="yes"/>
    </contour>
  </outline>
</glyph>
<glyph name="P" format="1">
  <advance width="1270"/>
  <unicode hex="0050"/>
  <outline>
    <contour>
      <point x="162" y="0" type="line"/>
      <point x="501" y="0" type="line"/>
      <point x="501" y="578" type="line"/>
      <point x="614" y="578" type="line" smooth="yes"/>
      <point x="1062" y="578"/>
      <point x="1220" y="706"/>
      <point x="1220" y="1046" type="curve" smooth="yes"/>
      <point x="1220" y="1379"/>
      <point x="1051" y="1490"/>
      <point x="645" y="1490" type="curve" smooth="yes"/>
      <point x="162" y="1490" type="line"/>
    </contour>
    <contour>
      <point x="501" y="824" type="line"/>
      <point x="501.0" y="1252.0" type="line"/>
      <point x="702" y="1252" type="line" smooth="yes"/>
      <point x="864" y="1252"/>
      <point x="908" y="1155"/>
      <point x="908" y="1043" type="curve" smooth="yes"/>
      <point x="908" y="922"/>
      <point x="870" y="824"/>
      <point x="690" y="824" type="curve" smooth="yes"/>
    </contour>
  </outline>
</glyph>
<glyph name="S" format="1">
  <advance width="1215"/>
  <unicode hex="0053"/>
  <outline>
    <contour>
      <point x="616" y="-24" type="curve" smooth="yes"/>
      <point x="1008" y="-24"/>
      <point x="1143" y="186"/>
      <point x="1143" y="438" type="curve" smooth="yes"/>
      <point x="1143" y="648"/>
      <point x="1034" y="746"/>
      <point x="846" y="831" type="curve" smooth="yes"/>
      <point x="658" y="916" type="line" smooth="yes"/>
      <point x="503" y="986"/>
      <point x="446" y="1012"/>
      <point x="446" y="1108" type="curve" smooth="yes"/>
      <point x="446" y="1193"/>
      <point x="525" y="1250"/>
      <point x="648" y="1245" type="curve" smooth="yes"/>
      <point x="766" y="1240"/>
      <point x="902" y="1182"/>
      <point x="987" y="1138" type="curve"/>
      <point x="1108" y="1366" type="line"/>
      <point x="970" y="1471"/>
      <point x="798" y="1520"/>
      <point x="626" y="1520" type="curve" smooth="yes"/>
      <point x="322" y="1520"/>
      <point x="101" y="1362"/>
      <point x="101" y="1077" type="curve" smooth="yes"/>
      <point x="101" y="931"/>
      <point x="160" y="790"/>
      <point x="402" y="682" type="curve" smooth="yes"/>
      <point x="600" y="595" type="line" smooth="yes"/>
      <point x="785" y="512"/>
      <point x="814" y="485"/>
      <point x="814" y="410" type="curve" smooth="yes"/>
      <point x="814" y="322"/>
      <point x="733" y="255"/>
      <point x="615" y="255" type="curve" smooth="yes"/>
      <point x="469" y="255"/>
      <point x="256" y="347"/>
      <point x="197" y="384" type="curve"/>
      <point x="87" y="141" type="line"/>
      <point x="201" y="52"/>
      <point x="421" y="-24"/>
    </contour>
  </outline>
</glyph>
<glyph name="X" format="1">
  <advance width="1117"/>
  <unicode hex="0058"/>
  <outline>
    <contour>
      <point x="19" y="0" type="line"/>
      <point x="304" y="0" type="line"/>
      <point x="557" y="492" type="line"/>
      <point x="813" y="0" type="line"/>
      <point x="1097" y="0" type="line"/>
      <point x="859" y="775" type="line"/>
      <point x="1100" y="1490" type="line"/>
      <point x="821" y="1490" type="line"/>
      <point x="555" y="1044" type="line"/>
      <point x="304" y="1490" type="line"/>
      <point x="17" y="1490" type="line"/>
      <point x="260" y="770" type="line"/>
    </contour>
  </outline>
</glyph>
<glyph name="k" format="1">
  <advance width="1118"/>
  <unicode hex="006B"/>
  <outline>
    <contour>
      <point x="130" y="0" type="line"/>
      <point x="440" y="0" type="line"/>
      <point x="440" y="429" type="line"/>
      <point x="477" y="477" type="line"/>
      <point x="750" y="0" type="line"/>
      <point x="1106" y="0" type="line"/>
      <point x="740" y="594" type="line"/>
      <point x="1107" y="1080" type="line"/>
      <point x="754" y="1080" type="line"/>
      <point x="440" y="654" type="line"/>
      <point x="440" y="1490" type="line"/>
      <point x="130" y="1490" type="line"/>
    </contour>
  </outline>
</glyph>
<glyph name="l" format="1">
  <advance width="650"/>
  <unicode hex="006C"/>
  <outline>
    <contour>
      <point x="130" y="1490" type="line"/>
      <point x="130" y="338" type="line" smooth="yes"/>
      <point x="130" y="136"/>
      <point x="194" y="0"/>
      <point x="436" y="0" type="curve" smooth="yes"/>
      <point x="625" y="0" type="line"/>
      <point x="625" y="220" type="line"/>
      <point x="496" y="220"/>
      <point x="440" y="240"/>
      <point x="440" y="309" type="curve" smooth="yes"/>
      <point x="440" y="1490" type="line"/>
    </contour>
  </outline>
</glyph>
<glyph name="section" format="1">
  <advance width="1032"/>
  <unicode hex="00A7"/>
  <outline>
    <contour>
      <point x="698" y="281" type="curve" smooth="yes"/>
      <point x="698" y="221"/>
      <point x="634" y="185"/>
      <point x="527" y="185" type="curve" smooth="yes"/>
      <point x="383" y="185"/>
      <point x="291" y="283"/>
      <point x="266" y="348" type="curve"/>
      <point x="84" y="288" type="line"/>
      <point x="127" y="119"/>
      <point x="232" y="-15"/>
      <point x="527" y="-15" type="curve" smooth="yes"/>
      <point x="789" y="-15"/>
      <point x="936" y="82"/>
      <point x="936" y="281" type="curve" smooth="yes"/>
      <point x="936" y="373"/>
      <point x="880" y="453"/>
      <point x="813" y="511" type="curve"/>
      <point x="897" y="565"/>
      <point x="936" y="652"/>
      <point x="936" y="751" type="curve" smooth="yes"/>
      <point x="936" y="912"/>
      <point x="797" y="1022"/>
      <point x="633" y="1104" type="curve"/>
      <point x="532" y="1139"/>
      <point x="356" y="1163"/>
      <point x="356" y="1245" type="curve" smooth="yes"/>
      <point x="356" y="1305"/>
      <point x="420" y="1340"/>
      <point x="527" y="1340" type="curve" smooth="yes"/>
      <point x="673" y="1340"/>
      <point x="732" y="1243"/>
      <point x="757" y="1178" type="curve"/>
      <point x="939" y="1238" type="line"/>
      <point x="899" y="1407"/>
      <point x="789" y="1540"/>
      <point x="527" y="1540" type="curve" smooth="yes"/>
      <point x="234" y="1540"/>
      <point x="86" y="1444"/>
      <point x="86" y="1245" type="curve" smooth="yes"/>
      <point x="86" y="1151"/>
      <point x="156" y="1087"/>
      <point x="230" y="1040" type="curve"/>
      <point x="133" y="990"/>
      <point x="86" y="895"/>
      <point x="86" y="787" type="curve" smooth="yes"/>
      <point x="86" y="487"/>
      <point x="698" y="529"/>
    </contour>
    <contour>
      <point x="576" y="658" type="curve"/>
      <point x="493" y="690"/>
      <point x="356" y="719"/>
      <point x="356" y="787" type="curve" smooth="yes"/>
      <point x="356" y="832"/>
      <point x="409" y="874"/>
      <point x="476" y="897" type="curve"/>
      <point x="541" y="868" type="line" smooth="yes"/>
      <point x="612" y="834"/>
      <point x="698" y="786"/>
      <point x="698" y="751" type="curve" smooth="yes"/>
      <point x="698" y="706"/>
      <point x="640" y="677"/>
    </contour>
  </outline>
</glyph>
<glyph name="Ucircumflex" format="1">
  <advance width="1373"/>
  <unicode hex="00DB"/>
  <outline>
    <contour>
      <point x="925" y="1490" type="line"/>
      <point x="925" y="404" type="line" smooth="yes"/>
      <point x="925" y="286"/>
      <point x="911" y="237"/>
      <point x="701" y="237" type="curve" smooth="yes"/>
      <point x="494" y="237"/>
      <point x="477" y="285"/>
      <point x="477" y="404" type="curve" smooth="yes"/>
      <point x="477" y="1490" type="line"/>
      <point x="139" y="1490" type="line"/>
      <point x="139" y="473" type="line" smooth="yes"/>
      <point x="139" y="186"/>
      <point x="212" y="-29"/>
      <point x="648" y="-29" type="curve" smooth="yes"/>
      <point x="753" y="-29" type="line" smooth="yes"/>
      <point x="1189" y="-29"/>
      <point x="1264" y="203"/>
      <point x="1264" y="490" type="curve" smooth="yes"/>
      <point x="1264" y="1490" type="line"/>
    </contour>
    <contour>
      <point x="331" y="1563" type="line"/>
      <point x="576" y="1563" type="line"/>
      <point x="685" y="1730" type="line"/>
      <point x="796" y="1563" type="line"/>
      <point x="1043" y="1563" type="line"/>
      <point x="873" y="1899" type="line"/>
      <point x="497" y="1899" type="line"/>
    </contour>
  </outline>
</glyph>
<glyph name="Abreve" format="1">
  <advance width="1175"/>
  <unicode hex="0102"/>
  <outline>
    <contour>
      <point x="53" y="0" type="line"/>
      <point x="400" y="0" type="line"/>
      <point x="467" y="319" type="line"/>
      <point x="825" y="319" type="line"/>
      <point x="892" y="0" type="line"/>
      <point x="1241" y="0" type="line"/>
      <point x="909" y="1490" type="line"/>
      <point x="386" y="1490" type="line"/>
    </contour>
    <contour>
      <point x="379" y="1805" type="line"/>
      <point x="379" y="1683"/>
      <point x="466" y="1600"/>
      <point x="588" y="1600" type="curve" smooth="yes"/>
      <point x="710" y="1600"/>
      <point x="797" y="1683"/>
      <point x="797" y="1805" type="curve"/>
      <point x="655" y="1805" type="line"/>
      <point x="655" y="1764"/>
      <point x="639" y="1700"/>
      <point x="588" y="1700" type="curve" smooth="yes"/>
      <point x="537" y="1700"/>
      <point x="521" y="1764"/>
      <point x="521" y="1805" type="curve"/>
    </contour>
    <contour>
      <point x="501" y="504" type="line"/>
      <point x="649" y="1280" type="line"/>
      <point x="789" y="504" type="line"/>
    </contour>
  </outline>
</glyph>
<glyph name="Gbreve" format="1">
  <advance width="1376"/>
  <unicode hex="011E"/>
  <outline>
    <contour>
      <point x="70" y="466" type="line" smooth="yes"/>
      <point x="70" y="235"/>
      <point x="170" y="-29"/>
      <point x="512" y="-29" type="curve" smooth="yes"/>
      <point x="689" y="-29"/>
      <point x="877" y="25"/>
      <point x="968" y="104" type="curve"/>
      <point x="1037" y="0" type="line"/>
      <point x="1300" y="0" type="line"/>
      <point x="1300" y="766" type="line"/>
      <point x="560" y="766" type="line"/>
      <point x="560" y="550" type="line"/>
      <point x="867" y="550" type="line"/>
      <point x="867" y="431" type="line" smooth="yes"/>
      <point x="867" y="334"/>
      <point x="832" y="204"/>
      <point x="619" y="204" type="curve" smooth="yes"/>
      <point x="406" y="204"/>
      <point x="371" y="325"/>
      <point x="371" y="423" type="curve" smooth="yes"/>
      <point x="371" y="1066" type="line" smooth="yes"/>
      <point x="371" y="1164"/>
      <point x="407" y="1286"/>
      <point x="619" y="1286" type="curve" smooth="yes"/>
      <point x="847" y="1286"/>
      <point x="868" y="1148"/>
      <point x="868" y="1039" type="curve" smooth="yes"/>
      <point x="868" y="934" type="line"/>
      <point x="1288" y="934" type="line"/>
      <point x="1288" y="1022" type="line" smooth="yes"/>
      <point x="1288" y="1309"/>
      <point x="1176" y="1518"/>
      <point x="619" y="1518" type="curve" smooth="yes"/>
      <point x="174" y="1518"/>
      <point x="70" y="1290"/>
      <point x="70" y="991" type="curve" smooth="yes"/>
    </contour>
    <contour>
      <point x="480" y="1805" type="line"/>
      <point x="480" y="1683"/>
      <point x="567" y="1600"/>
      <point x="689" y="1600" type="curve" smooth="yes"/>
      <point x="811" y="1600"/>
      <point x="898" y="1683"/>
      <point x="898" y="1805" type="curve"/>
      <point x="756" y="1805" type="line"/>
      <point x="756" y="1764"/>
      <point x="740" y="1700"/>
      <point x="689" y="1700" type="curve" smooth="yes"/>
      <point x="638" y="1700"/>
      <point x="622" y="1764"/>
      <point x="622" y="1805" type="curve"/>
    </contour>
  </outline>
</glyph>
<glyph name="imacron" format="1">
  <advance width="440"/>
  <unicode hex="012B"/>
  <outline>
    <contour>
      <point x="103" y="0" type="line"/>
      <point x="381" y="0" type="line"/>
      <point x="381" y="1080" type="line"/>
      <point x="103" y="1080" type="line"/>
    </contour>
    <contour>
      <point x="10" y="1206" type="line"/>
      <point x="430" y="1206" type="line"/>
      <point x="430" y="1365" type="line"/>
      <point x="10" y="1365" type="line"/>
    </contour>
  </outline>
</glyph>
<glyph name="lcaron" format="1">
  <advance width="437"/>
  <unicode hex="013E"/>
  <outline>
    <contour>
      <point x="131" y="1490" type="line"/>
      <point x="131" y="253" type="line" smooth="yes"/>
      <point x="131" y="101"/>
      <point x="192" y="0"/>
      <point x="377" y="0" type="curve" smooth="yes"/>
      <point x="572" y="0" type="line"/>
      <point x="572" y="205" type="line"/>
      <point x="474" y="205"/>
      <point x="441" y="239"/>
      <point x="441" y="317" type="curve" smooth="yes"/>
      <point x="441" y="1490" type="line"/>
    </contour>
    <contour>
      <point x="542" y="1025" type="line"/>
      <point x="776" y="990"/>
      <point x="752" y="1206"/>
      <point x="752" y="1489" type="curve"/>
      <point x="485" y="1489" type="line"/>
      <point x="485" y="1226" type="line"/>
      <point x="576" y="1226" type="line"/>
      <point x="575" y="1156"/>
      <point x="569" y="1162"/>
      <point x="509" y="1162" type="curve"/>
    </contour>
  </outline>
</glyph>
<glyph name="Sacute" format="1">
  <advance width="1218"/>
  <unicode hex="015A"/>
  <outline>
    <contour>
      <point x="607" y="-31" type="curve" smooth="yes"/>
      <point x="160" y="-31"/>
      <point x="89" y="208"/>
      <point x="89" y="430" type="curve" smooth="yes"/>
      <point x="89" y="492" type="line"/>
      <point x="440" y="551" type="line"/>
      <point x="440" y="511"/>
      <point x="439" y="487"/>
      <point x="439" y="454" type="curve" smooth="yes"/>
      <point x="439" y="445" type="line" smooth="yes"/>
      <point x="439" y="327"/>
      <point x="471" y="255"/>
      <point x="616" y="255" type="curve" smooth="yes"/>
      <point x="719" y="255"/>
      <point x="775" y="280"/>
      <point x="775" y="343" type="curve" smooth="yes"/>
      <point x="775" y="384"/>
      <point x="748" y="428"/>
      <point x="688" y="472" type="curve"/>
      <point x="687" y="472"/>
      <point x="248" y="804"/>
      <point x="247" y="805" type="curve"/>
      <point x="135" y="888"/>
      <point x="96" y="978"/>
      <point x="96" y="1139" type="curve" smooth="yes"/>
      <point x="96" y="1383"/>
      <point x="200" y="1520"/>
      <point x="625" y="1520" type="curve" smooth="yes"/>
      <point x="979" y="1520"/>
      <point x="1077" y="1293"/>
      <point x="1077" y="1082" type="curve" smooth="yes"/>
      <point x="1077" y="1021" type="line"/>
      <point x="738" y="978" type="line"/>
      <point x="738" y="1063" type="line" smooth="yes"/>
      <point x="738" y="1133"/>
      <point x="725" y="1235"/>
      <point x="583" y="1235" type="curve" smooth="yes"/>
      <point x="496" y="1235"/>
      <point x="453" y="1197"/>
      <point x="453" y="1134" type="curve" smooth="yes"/>
      <point x="453" y="1098"/>
      <point x="466" y="1067"/>
      <point x="504" y="1039" type="curve"/>
      <point x="504" y="1038"/>
      <point x="950" y="701"/>
      <point x="952" y="700" type="curve"/>
      <point x="1087" y="602"/>
      <point x="1125" y="514"/>
      <point x="1125" y="380" type="curve" smooth="yes"/>
      <point x="1125" y="363"/>
      <point x="1124" y="345"/>
      <point x="1123" y="326" type="curve" smooth="yes"/>
      <point x="1111" y="113"/>
      <point x="981" y="-31"/>
    </contour>
    <contour>
      <point x="411" y="1563" type="line"/>
      <point x="579" y="1563" type="line"/>
      <point x="809" y="1928" type="line"/>
      <point x="523" y="1928" type="line"/>
    </contour>
  </outline>
</glyph>
<glyph name="zdotaccent" format="1">
  <advance width="815"/>
  <unicode hex="017C"/>
  <outline>
    <contour>
      <point x="47" y="0" type="line"/>
      <point x="775" y="0" type="line"/>
      <point x="775" y="202" type="line"/>
      <point x="398" y="202" type="line"/>
      <point x="775" y="895" type="line"/>
      <point x="775" y="1080" type="line"/>
      <point x="94" y="1080" type="line"/>
      <point x="94" y="879" type="line"/>
      <point x="419" y="879" type="line"/>
      <point x="47" y="189" type="line"/>
    </contour>
    <contour>
      <point x="203" y="1240" type="line"/>
      <point x="470" y="1240" type="line"/>
      <point x="470" y="1504" type="line"/>
      <point x="203" y="1504" type="line"/>
    </contour>
  </outline>
</glyph>
<glyph name="uni1E03" format="1">
  <advance width="986"/>
  <unicode hex="1E03"/>
  <outline>
    <contour>
      <point x="980" y="223" type="curve" smooth="yes"/>
      <point x="980" y="828" type="line" smooth="yes"/>
      <point x="980" y="960"/>
      <point x="920" y="1105"/>
      <point x="733" y="1105" type="curve" smooth="yes"/>
      <point x="601" y="1105"/>
      <point x="517" y="1062"/>
      <point x="441" y="1007" type="curve"/>
      <point x="441" y="1490" type="line"/>
      <point x="131" y="1490" type="line"/>
      <point x="131" y="0" type="line"/>
      <point x="441" y="0" type="line"/>
      <point x="441" y="81" type="line"/>
      <point x="514" y="21"/>
      <point x="598" y="-25"/>
      <point x="718" y="-25" type="curve" smooth="yes"/>
      <point x="888" y="-25"/>
      <point x="980" y="76"/>
    </contour>
    <contour>
      <point x="669" y="264" type="line" smooth="yes"/>
      <point x="669" y="229"/>
      <point x="633" y="181"/>
      <point x="555" y="181" type="curve" smooth="yes"/>
      <point x="495" y="181"/>
      <point x="441" y="219"/>
      <point x="441" y="253" type="curve" smooth="yes"/>
      <point x="441" y="813" type="line" smooth="yes"/>
      <point x="441" y="848"/>
      <point x="506" y="894"/>
      <point x="572" y="894" type="curve" smooth="yes"/>
      <point x="648" y="894"/>
      <point x="669" y="837"/>
      <point x="669" y="789" type="curve" smooth="yes"/>
    </contour>
    <contour>
      <point x="366" y="1590" type="line"/>
      <point x="633" y="1590" type="line"/>
      <point x="633" y="1854" type="line"/>
      <point x="366" y="1854" type="line"/>
    </contour>
  </outline>
</glyph>
<glyph name="quotesinglbase" format="1">
  <advance width="354"/>
  <unicode hex="201A"/>
  <outline>
    <contour>
      <point x="105" y="-266" type="line"/>
      <point x="240" y="-266" type="line"/>
      <point x="299" y="85" type="line"/>
      <point x="47" y="85" type="line"/>
    </contour>
  </outline>
</glyph>
